<svg width="17" height="17" viewBox="0 0 17 17" fill="none" xmlns="http://www.w3.org/2000/svg">
<path d="M8.0045 16.5177C8.04685 16.5449 8.10133 16.5449 8.14379 16.5175L15.6219 11.6931C15.7006 11.6423 15.7008 11.5274 15.6223 11.4769L12.7365 9.61946C12.6942 9.5922 12.6397 9.59228 12.5972 9.61967L5.11911 14.4441M8.0045 16.5177L5.11911 14.4441M8.0045 16.5177L5.1187 14.6602C5.04023 14.6097 5.04044 14.4948 5.11911 14.4441M8.0045 16.5177L5.11911 14.4441" fill="#00A3FF" stroke="#2A3235" stroke-width="0.192511"/>
<path d="M8.52216 10.2937C8.47981 10.321 8.42545 10.321 8.3831 10.2938L0.886173 5.47587C0.807456 5.42528 0.807417 5.31023 0.886102 5.25959L8.38302 0.434673C8.42542 0.407389 8.47984 0.407399 8.52223 0.4347L16.0128 5.25962C16.0915 5.31027 16.0914 5.42525 16.0128 5.47584L8.52216 10.2937Z" fill="white" stroke="#2A3235" stroke-width="0.192511"/>
<path d="M3.89292 13.2939C3.85046 13.3213 3.796 13.3214 3.75365 13.2941L0.868433 11.4362C0.789926 11.3857 0.790212 11.2707 0.86897 11.22L3.76048 9.35889C3.80283 9.33163 3.85711 9.33151 3.8994 9.35859L6.79046 11.2099C6.86918 11.2603 6.86907 11.3755 6.79026 11.4263L3.89292 13.2939Z" fill="#00FF66" stroke="#2A3235" stroke-width="0.192511"/>
<path d="M5.64096 6.27655C5.604 6.30005 5.55682 6.30002 5.52004 6.27648L4.59803 5.6862C4.52893 5.64196 4.52934 5.54081 4.59878 5.49666L8.67879 2.90271C8.71576 2.87921 8.76293 2.87924 8.79971 2.90278L9.72173 3.49306C9.79082 3.5373 9.79042 3.63845 9.72097 3.6826L5.64096 6.27655Z" fill="#2A3235" stroke="white" stroke-width="0.224827"/>
<path d="M8.2583 7.94389C8.22124 7.96791 8.17363 7.96809 8.13655 7.94435L7.21287 7.353C7.14413 7.309 7.1441 7.20852 7.2128 7.16399L7.1519 7.06972L7.2128 7.16399L9.66287 5.57632C9.69993 5.5523 9.74753 5.55212 9.78461 5.57586L10.7083 6.1672C10.777 6.21121 10.7771 6.31169 10.7084 6.35621L8.2583 7.94389Z" fill="#2A3235" stroke="white" stroke-width="0.224827"/>
</svg>
