<svg width="1197" height="146" viewBox="0 0 1197 146" fill="none" xmlns="http://www.w3.org/2000/svg">
                    <path d="M374.402 52.055C379.372 52.055 383.402 48.0256 383.402 43.055C383.402 38.0845 379.372 34.055 374.402 34.055V52.055ZM374.402 133.931C379.372 133.931 383.402 129.902 383.402 124.931C383.402 119.961 379.372 115.931 374.402 115.931V133.931ZM432.751 64.8447C432.751 69.8153 436.781 73.8447 441.751 73.8447C446.722 73.8447 450.751 69.8153 450.751 64.8447H432.751ZM541.7 64.8447C541.7 69.8153 545.729 73.8447 550.7 73.8447C555.67 73.8447 559.7 69.8153 559.7 64.8447H541.7ZM657.667 52.055C662.638 52.055 666.667 48.0256 666.667 43.055C666.667 38.0845 662.638 34.055 657.667 34.055V52.055ZM627.954 115.931C622.984 115.931 618.954 119.961 618.954 124.931C618.954 129.902 622.984 133.931 627.954 133.931V115.931ZM794.5 21.7936C794.5 16.823 790.47 12.7936 785.5 12.7936C780.529 12.7936 776.5 16.823 776.5 21.7936H794.5ZM776.5 124.931C776.5 129.902 780.529 133.931 785.5 133.931C790.47 133.931 794.5 129.902 794.5 124.931H776.5ZM795.314 34.055C790.343 34.055 786.314 38.0845 786.314 43.055C786.314 48.0256 790.343 52.055 795.314 52.055V34.055ZM861.678 124.931C861.678 129.902 865.707 133.931 870.678 133.931C875.648 133.931 879.678 129.902 879.678 124.931H861.678ZM1126.89 21.7936C1126.89 16.823 1122.86 12.7936 1117.89 12.7936C1112.92 12.7936 1108.89 16.823 1108.89 21.7936H1126.89ZM1108.89 124.931C1108.89 129.902 1112.92 133.931 1117.89 133.931C1122.86 133.931 1126.89 129.902 1126.89 124.931H1108.89ZM1196.09 21.7936C1196.09 16.823 1192.06 12.7936 1187.09 12.7936C1182.12 12.7936 1178.09 16.823 1178.09 21.7936H1196.09ZM1178.09 124.931C1178.09 129.902 1182.12 133.931 1187.09 133.931C1192.06 133.931 1196.09 129.902 1196.09 124.931H1178.09ZM981.342 76.3138C976.372 76.3138 972.342 80.3433 972.342 85.3138C972.342 90.2844 976.372 94.3138 981.342 94.3138V76.3138ZM993.228 133.931C998.198 133.931 1002.23 129.902 1002.23 124.931C1002.23 119.961 998.198 115.931 993.228 115.931V133.931ZM450.751 103.274C450.751 98.3032 446.722 94.2738 441.751 94.2738C436.781 94.2738 432.751 98.3032 432.751 103.274H450.751ZM559.7 103.274C559.7 98.3032 555.67 94.2738 550.7 94.2738C545.729 94.2738 541.7 98.3032 541.7 103.274H559.7ZM374.402 34.055H274.763V52.055H374.402V34.055ZM265.697 43.1211V124.865H283.697V43.1211H265.697ZM274.763 133.931H374.402V115.931H274.763V133.931ZM450.751 64.8447V43.1211H432.751V64.8447H450.751ZM441.817 52.055H550.634V34.055H441.817V52.055ZM541.7 43.1211V64.8447H559.7V43.1211H541.7ZM657.667 34.055H618.776V52.055H657.667V34.055ZM609.71 43.1211V85.2478H627.71V43.1211H609.71ZM618.776 94.3138H717.688V76.3138H618.776V94.3138ZM708.754 85.3798V124.865H726.754V85.3798H708.754ZM717.688 115.931H627.954V133.931H717.688V115.931ZM776.5 21.7936V124.931H794.5V21.7936H776.5ZM795.314 52.055H838.984V34.055H795.314V52.055ZM861.678 74.7491V124.931H879.678V74.7491H861.678ZM1108.89 21.7936V124.931H1126.89V21.7936H1108.89ZM1178.09 21.7936V124.931H1196.09V21.7936H1178.09ZM981.342 94.3138H1049.29V76.3138H981.342V94.3138ZM1058.35 85.2478V74.7491H1040.35V85.2478H1058.35ZM1017.66 34.055H970.778V52.055H1017.66V34.055ZM930.084 74.7491V124.865H948.084V74.7491H930.084ZM939.15 133.931H993.228V115.931H939.15V133.931ZM432.751 103.274V124.865H450.751V103.274H432.751ZM441.817 133.931H550.634V115.931H441.817V133.931ZM559.7 124.865V103.274H541.7V124.865H559.7ZM550.634 133.931C555.641 133.931 559.7 129.872 559.7 124.865H541.7C541.7 119.931 545.7 115.931 550.634 115.931V133.931ZM432.751 124.865C432.751 129.872 436.811 133.931 441.817 133.931V115.931C446.751 115.931 450.751 119.931 450.751 124.865H432.751ZM930.084 124.865C930.084 129.871 934.142 133.931 939.15 133.931V115.931C944.085 115.931 948.084 119.932 948.084 124.865H930.084ZM970.778 34.055C948.303 34.055 930.084 52.2744 930.084 74.7491H948.084C948.084 62.2155 958.244 52.055 970.778 52.055V34.055ZM265.697 124.865C265.697 129.871 269.755 133.931 274.763 133.931V115.931C279.698 115.931 283.697 119.932 283.697 124.865H265.697ZM1058.35 74.7491C1058.35 52.2744 1040.13 34.055 1017.66 34.055V52.055C1030.19 52.055 1040.35 62.2155 1040.35 74.7491H1058.35ZM717.688 94.3138C712.754 94.3138 708.754 90.3141 708.754 85.3798H726.754C726.754 80.3726 722.695 76.3138 717.688 76.3138V94.3138ZM609.71 85.2478C609.71 90.255 613.769 94.3138 618.776 94.3138V76.3138C623.71 76.3138 627.71 80.3135 627.71 85.2478H609.71ZM618.776 34.055C613.769 34.055 609.71 38.1141 609.71 43.1211H627.71C627.71 48.0551 623.71 52.055 618.776 52.055V34.055ZM450.751 43.1211C450.751 48.0552 446.752 52.055 441.817 52.055V34.055C436.81 34.055 432.751 38.114 432.751 43.1211H450.751ZM274.763 34.055C269.757 34.055 265.697 38.1138 265.697 43.1211H283.697C283.697 48.0554 279.697 52.055 274.763 52.055V34.055ZM1049.29 94.3138C1054.29 94.3138 1058.35 90.2551 1058.35 85.2478H1040.35C1040.35 80.3134 1044.35 76.3138 1049.29 76.3138V94.3138ZM838.984 52.055C851.517 52.055 861.678 62.2155 861.678 74.7491H879.678C879.678 52.2744 861.458 34.055 838.984 34.055V52.055ZM550.634 52.055C545.7 52.055 541.7 48.0551 541.7 43.1211H559.7C559.7 38.114 555.641 34.055 550.634 34.055V52.055ZM708.754 124.865C708.754 119.931 712.754 115.931 717.688 115.931V133.931C722.695 133.931 726.754 129.872 726.754 124.865H708.754Z" fill="white"/>
                    <path d="M75.5771 144.098C75.0237 144.417 74.3428 144.418 73.7907 144.1L46.4411 128.336C45.2506 127.65 45.2541 125.93 46.4474 125.241L119.195 83.2142C119.748 82.8945 120.429 82.8936 120.981 83.2118L148.331 98.9754C149.521 99.6616 149.518 101.382 148.325 102.071L75.5771 144.098Z" fill="#00B8FB" stroke="#242F33" stroke-width="1.708"/>
                    <path d="M79.3131 89.0001C78.7612 89.3179 78.0818 89.3181 77.5297 89.0004L4.59725 47.0296C3.40333 46.3425 3.40278 44.62 4.59627 43.9322L77.5288 1.90017C78.0813 1.58173 78.7617 1.58186 79.3141 1.9005L152.185 43.9325C153.378 44.6205 153.377 46.3421 152.184 47.0293L79.3131 89.0001Z" fill="white" stroke="#242F33" stroke-width="1.708"/>
                    <path d="M33.556 115.557C33.0026 115.876 32.3218 115.877 31.7698 115.559L4.42373 99.7972C3.23264 99.1107 3.23686 97.3894 4.43132 96.7006L31.8309 80.9016C32.3828 80.5834 33.0612 80.5819 33.6124 80.8978L61.0137 96.6042C62.2077 97.2886 62.206 99.0122 61.0108 99.7024L33.556 115.557Z" fill="#13FF3A" stroke="#242F33" stroke-width="1.708"/>
                    <path d="M80.4426 23.7544L79.9534 22.8915L80.4426 23.7544C80.9491 23.466 81.5693 23.4664 82.0734 23.7554L89.9986 28.2988C91.1006 28.9306 91.0941 30.5232 89.987 31.1534L50.845 53.4375C50.3386 53.7259 49.7183 53.7255 49.2142 53.4365L48.716 54.3021L49.2142 53.4365L41.2891 48.8931C40.1871 48.2613 40.1935 46.6687 41.3006 46.0384L80.4426 23.7544Z" fill="#242F33" stroke="white" stroke-width="1.99471"/>
                    <path d="M76.7216 68.1888C76.2133 68.4837 75.5873 68.4859 75.0789 68.1945L67.1282 63.6365C66.0315 63.0077 66.0313 61.425 67.128 60.7886L90.1674 47.4193C90.6757 47.1244 91.3017 47.1222 91.81 47.4136L99.7608 51.9716C100.857 52.6004 100.858 54.1831 99.761 54.8195L76.7216 68.1888Z" fill="#242F33" stroke="white" stroke-width="1.99471"/>
                </svg>